<?xml version="1.0"?>
<svg xmlns="http://www.w3.org/2000/svg" xmlns:xlink="http://www.w3.org/1999/xlink" version="1.1" id="Capa_1" x="0px" y="0px" width="512px" height="512px" viewBox="0 0 606.816 606.816" style="enable-background:new 0 0 606.816 606.816;" xml:space="preserve" class=""><g><g>
	<g>
		<g>
			<path d="M427.058,79.917c-11.908-7.781-24.873-13.455-36.855-17.557c-5.596-14.695-14.537-27.92-26.047-38.28     C347.263,8.874,325.69,0.5,303.409,0.5c-22.281,0-43.854,8.374-60.746,23.581c-11.509,10.36-20.452,23.586-26.047,38.28     c-11.983,4.102-24.949,9.775-36.857,17.557h-50.825c-32.058,0-58.14,26.082-58.14,58.14v410.119     c0,32.059,26.082,58.141,58.14,58.141h348.95c32.059,0,58.139-26.082,58.139-58.141V138.057c0-32.058-26.08-58.14-58.139-58.14     H427.058z M253.877,87.36c0.491-2.551,1.148-5.034,1.947-7.442c7.067-21.335,25.7-36.578,47.584-36.578     c21.885,0,40.518,15.243,47.584,36.578c0.799,2.409,1.457,4.891,1.947,7.442c1.119,5.81,5.574,10.378,11.295,11.885     c20.768,5.473,37.699,13.664,48.5,23.512c1.703,1.553,3.26,3.146,4.648,4.777c6.852,8.046,1.201,20.417-9.367,20.417H198.802     c-10.569,0-16.219-12.37-9.367-20.417c1.389-1.632,2.945-3.224,4.648-4.777c10.801-9.849,27.731-18.04,48.5-23.512     C248.304,97.737,252.76,93.169,253.877,87.36z M493.185,138.057v410.119c0,8.451-6.852,15.301-15.301,15.301H128.935     c-8.45,0-15.3-6.85-15.3-15.301V138.057c0-8.45,6.85-15.3,15.3-15.3h16.175c-0.507,2.123-0.895,4.28-1.147,6.468     c-1.164,10.077,0.479,20.292,4.75,29.538c4.262,9.227,10.955,17.082,19.355,22.717c9.08,6.092,19.708,9.311,30.735,9.311h209.214     c11.029,0,21.656-3.22,30.736-9.311c8.4-5.635,15.094-13.491,19.355-22.717c4.27-9.246,5.914-19.46,4.75-29.538     c-0.254-2.188-0.641-4.345-1.148-6.468h16.176C486.333,122.757,493.185,129.607,493.185,138.057z" data-original="#000000" class="active-path" data-old_color="#000000" fill="#FFFFFF"/>
			<path d="M477.884,606.816h-348.95c-32.334,0-58.64-26.306-58.64-58.641V138.057c0-32.334,26.306-58.64,58.64-58.64h50.676     c10.489-6.837,22.809-12.708,36.622-17.454c5.656-14.751,14.676-27.975,26.096-38.255C259.312,8.42,281.004,0,303.409,0     s44.097,8.42,61.082,23.709c11.418,10.278,20.438,23.502,26.096,38.255c13.812,4.746,26.131,10.617,36.62,17.454h50.678     c32.333,0,58.639,26.306,58.639,58.64v410.119C536.522,580.511,510.217,606.816,477.884,606.816z M128.934,80.417     c-31.783,0-57.64,25.857-57.64,57.64v410.119c0,31.783,25.857,57.641,57.64,57.641h348.95c31.782,0,57.639-25.857,57.639-57.641     V138.057c0-31.783-25.856-57.64-57.639-57.64h-50.975l-0.125-0.082c-10.503-6.863-22.865-12.751-36.744-17.502l-0.222-0.076     l-0.083-0.219c-5.596-14.693-14.557-27.863-25.915-38.086C347.021,9.329,325.565,1,303.409,1     c-22.157,0-43.612,8.329-60.412,23.452c-11.359,10.225-20.32,23.395-25.914,38.086L217,62.758l-0.222,0.076     c-13.88,4.75-26.243,10.639-36.746,17.502l-0.125,0.082H128.934z M477.884,563.977H128.935c-8.712,0-15.8-7.088-15.8-15.801     V138.057c0-8.712,7.088-15.8,15.8-15.8h16.809l-0.147,0.616c-0.51,2.138-0.893,4.294-1.137,6.409     c-1.153,9.986,0.474,20.107,4.707,29.271c4.224,9.144,10.856,16.928,19.179,22.512c8.997,6.036,19.528,9.226,30.457,9.226     h209.214c10.928,0,21.46-3.19,30.458-9.226c8.324-5.584,14.957-13.369,19.18-22.512c4.232-9.166,5.86-19.288,4.707-29.27     c-0.247-2.129-0.63-4.286-1.138-6.409l-0.147-0.616h16.81c8.712,0,15.799,7.088,15.799,15.8v410.119     C493.685,556.889,486.597,563.977,477.884,563.977z M128.935,123.257c-8.161,0-14.8,6.639-14.8,14.8v410.119     c0,8.161,6.639,14.801,14.8,14.801h348.949c8.161,0,14.801-6.64,14.801-14.801V138.057c0-8.161-6.639-14.8-14.799-14.8H462.34     c0.446,1.962,0.787,3.947,1.016,5.91c1.174,10.166-0.483,20.472-4.793,29.805c-4.3,9.31-11.054,17.236-19.531,22.923     c-9.163,6.147-19.888,9.396-31.015,9.396H198.803c-11.128,0-21.853-3.249-31.014-9.396c-8.476-5.686-15.229-13.612-19.531-22.923     c-4.31-9.33-5.967-19.636-4.792-29.804c0.225-1.951,0.566-3.936,1.014-5.911H128.935z M408.017,148.451H198.802     c-5.067,0-9.532-2.853-11.653-7.444c-2.135-4.622-1.405-9.909,1.905-13.796c1.375-1.614,2.953-3.237,4.692-4.822     c10.89-9.93,27.734-18.099,48.71-23.626c5.58-1.471,9.87-5.984,10.93-11.496c0.481-2.502,1.142-5.027,1.963-7.505     c7.315-22.083,26.629-36.92,48.059-36.92c21.431,0,40.745,14.837,48.059,36.92c0.822,2.481,1.483,5.006,1.964,7.505     c1.062,5.514,5.353,10.026,10.931,11.496c20.979,5.529,37.822,13.699,48.71,23.626c1.74,1.587,3.319,3.209,4.692,4.822     c3.311,3.888,4.04,9.174,1.905,13.796C417.549,145.598,413.083,148.451,408.017,148.451z M303.409,43.84     c-20.999,0-39.93,14.562-47.11,36.235c-0.808,2.438-1.458,4.92-1.93,7.38c-1.133,5.888-5.709,10.706-11.658,12.274     c-20.821,5.486-37.52,13.577-48.291,23.398c-1.708,1.557-3.257,3.149-4.604,4.731c-3.055,3.587-3.729,8.464-1.759,12.729     c1.956,4.234,6.073,6.864,10.745,6.864h209.214c4.672,0,8.79-2.63,10.745-6.864c1.97-4.264,1.296-9.142-1.759-12.729     c-1.346-1.581-2.895-3.173-4.604-4.731c-10.769-9.819-27.467-17.911-48.29-23.398c-5.948-1.567-10.524-6.385-11.659-12.274     c-0.472-2.457-1.121-4.94-1.931-7.38C343.34,58.401,324.408,43.84,303.409,43.84z" data-original="#000000" class="active-path" data-old_color="#000000" fill="#FFFFFF"/>
		</g>
		<g>
			<path d="M303.41,109.265c11.941,0,21.623-9.68,21.623-21.622c0-2.723-0.51-5.326-1.428-7.726     c-3.111-8.125-10.977-13.896-20.195-13.896c-9.219,0-17.085,5.771-20.195,13.896c-0.919,2.399-1.427,5.003-1.427,7.726     C281.788,99.585,291.468,109.265,303.41,109.265z" data-original="#000000" class="active-path" data-old_color="#000000" fill="#FFFFFF"/>
			<path d="M303.41,109.765c-12.198,0-22.122-9.924-22.123-22.122c0-2.715,0.491-5.375,1.46-7.904     c3.255-8.504,11.559-14.217,20.662-14.217c9.102,0,17.405,5.713,20.662,14.217c0.97,2.534,1.461,5.193,1.461,7.904     C325.532,99.841,315.608,109.765,303.41,109.765z M303.41,66.521c-8.692,0-16.62,5.455-19.729,13.575     c-0.925,2.416-1.394,4.955-1.394,7.547c0,11.647,9.476,21.122,21.123,21.122c11.647,0,21.123-9.475,21.123-21.122     c0-2.589-0.47-5.128-1.395-7.547C320.028,71.977,312.101,66.521,303.41,66.521z" data-original="#000000" class="active-path" data-old_color="#000000" fill="#FFFFFF"/>
		</g>
		<g>
			<path d="M399.507,282.107c-8.365-8.365-21.928-8.365-30.293,0l-65.804,65.807l-65.806-65.807c-8.365-8.365-21.927-8.365-30.292,0     c-8.365,8.366-8.365,21.928,0,30.293l65.805,65.807l-65.805,65.805c-8.365,8.365-8.365,21.928,0,30.293     c4.183,4.182,9.665,6.273,15.146,6.273c5.482,0,10.964-2.092,15.146-6.273l65.805-65.807l65.805,65.807     c4.184,4.182,9.666,6.273,15.146,6.273c5.482,0,10.965-2.092,15.146-6.273c8.365-8.365,8.365-21.928,0-30.293l-65.805-65.805     l65.805-65.807C407.872,304.035,407.872,290.473,399.507,282.107z" data-original="#000000" class="active-path" data-old_color="#000000" fill="#FFFFFF"/>
			<path d="M384.36,481.078c-5.854,0-11.358-2.28-15.5-6.42l-65.452-65.453l-65.452,65.453c-4.141,4.14-9.645,6.42-15.5,6.42     c-5.854,0-11.358-2.28-15.5-6.42c-4.14-4.141-6.42-9.645-6.42-15.5s2.28-11.359,6.42-15.5l65.452-65.451l-65.452-65.453     c-8.546-8.547-8.546-22.453,0-31c4.14-4.14,9.645-6.42,15.5-6.42s11.359,2.28,15.5,6.42l65.453,65.453l65.451-65.453     c4.141-4.14,9.645-6.42,15.5-6.42s11.359,2.28,15.5,6.42c8.547,8.547,8.547,22.453,0,31l-65.451,65.453l65.451,65.451     c8.547,8.547,8.547,22.453,0,31C395.721,478.798,390.216,481.078,384.36,481.078z M303.409,407.791l66.159,66.16     c3.953,3.951,9.206,6.127,14.793,6.127c5.588,0,10.842-2.176,14.793-6.127c8.157-8.157,8.157-21.429,0-29.586l-66.158-66.158     l66.158-66.16c8.156-8.157,8.156-21.429,0-29.586c-3.951-3.951-9.205-6.127-14.793-6.127s-10.842,2.176-14.793,6.127     l-66.158,66.16l-66.16-66.16c-3.951-3.951-9.205-6.127-14.792-6.127s-10.841,2.176-14.793,6.127     c-8.157,8.157-8.157,21.429,0,29.586l66.159,66.16l-66.159,66.158c-3.951,3.951-6.127,9.205-6.127,14.793     s2.176,10.842,6.127,14.793c3.952,3.951,9.206,6.127,14.792,6.127c5.588,0,10.841-2.176,14.793-6.127L303.409,407.791z" data-original="#000000" class="active-path" data-old_color="#000000" fill="#FFFFFF"/>
		</g>
	</g>
</g></g> </svg>
