<svg width="30" height="30" viewBox="0 0 30 30" fill="none" xmlns="http://www.w3.org/2000/svg">
<path d="M20.5816 29.0959H6.32673L6.67841 28.6768C6.67847 28.6767 6.67859 28.6766 6.67865 28.6765C6.67871 28.6764 6.67877 28.6764 6.67888 28.6762L10.2844 24.3797C10.441 24.1931 10.4166 23.9149 10.23 23.7583C10.0434 23.6016 9.76519 23.626 9.60863 23.8126L6.28644 27.7716L5.2408 26.8942L20.4037 8.8249L21.4493 9.70235L10.8215 22.3672C10.6649 22.5538 10.6893 22.832 10.8759 22.9886C11.0624 23.1452 11.3407 23.1208 11.4973 22.9342L25.5559 6.18091C26.5663 4.97689 26.3774 3.14919 25.1351 2.10654L23.4631 0.70362C22.2206 -0.338968 20.3879 -0.207704 19.3775 0.996318L0.500335 23.4918L0.500277 23.4919L0.500218 23.4919L0.10319 23.9651C0.0330877 24.0486 -0.00355106 24.1551 0.000271607 24.2641L0.170351 29.0931C0.179525 29.352 0.299792 29.597 0.500394 29.7654C0.668297 29.9063 0.879368 29.9825 1.0942 29.9825C1.12249 29.9825 20.5817 29.978 20.5817 29.978C20.8253 29.978 21.0228 29.7806 21.0228 29.5369C21.0228 29.2933 20.8252 29.0959 20.5816 29.0959ZM1.00863 27.8342L2.31404 28.9297L1.09732 29.1002C1.08403 29.1022 1.07297 29.0944 1.06738 29.0897C1.0618 29.0851 1.05239 29.0752 1.05192 29.0621L1.00863 27.8342ZM5.71469 28.4529L3.49001 28.7648L0.966877 26.6475L0.887836 24.4024L0.892541 24.3968L5.71945 28.4474L5.71469 28.4529ZM4.56501 26.3271L3.30235 25.2675L15.3268 10.9383C15.4834 10.7516 15.4591 10.4734 15.2725 10.3169C15.0858 10.1602 14.8076 10.1846 14.6511 10.3712L2.62662 24.7004L1.45953 23.7211L16.6224 5.6518L17.7895 6.63122L15.864 8.92582C15.7074 9.11243 15.7317 9.39066 15.9183 9.54721C16.001 9.61661 16.1016 9.65042 16.2016 9.65042C16.3275 9.65042 16.4525 9.59685 16.5397 9.49287L18.4652 7.19827L19.7278 8.2578L4.56501 26.3271ZM20.0533 1.56337C20.7509 0.731907 22.0263 0.649514 22.896 1.37935L24.568 2.78227C25.4378 3.51222 25.5779 4.78246 24.8803 5.61381L23.2787 7.52237L22.8225 7.13958C22.6358 6.98291 22.3576 7.00737 22.2011 7.19392C22.0445 7.38052 22.0688 7.65876 22.2554 7.81531L22.7116 8.1981L22.0165 9.02645L17.1895 4.97601L17.8846 4.14772L20.8141 6.60599C20.8967 6.67539 20.9974 6.70921 21.0974 6.70921C21.2233 6.70921 21.3483 6.65563 21.4355 6.55165C21.5921 6.36505 21.5678 6.08682 21.3812 5.93026L18.4516 3.47199L20.0533 1.56337Z" fill="white"/>
<path d="M29.5588 29.0959H22.8968C22.6531 29.0959 22.4557 29.2934 22.4557 29.537C22.4557 29.7807 22.6531 29.9781 22.8968 29.9781H29.5588C29.8024 29.9781 29.9998 29.7807 29.9998 29.537C29.9998 29.2934 29.8024 29.0959 29.5588 29.0959Z" fill="white"/>
</svg>
