<?xml version="1.0"?>
<svg xmlns="http://www.w3.org/2000/svg" id="Capa_1" enable-background="new 0 0 512 512" height="512px" viewBox="0 0 512 512" width="512px" class=""><g><g><path d="m138.37 310.13c-14.305 0-27.812 4.646-39.063 13.434-3.264 2.55-3.843 7.263-1.293 10.527s7.263 3.844 10.527 1.293c8.588-6.708 18.902-10.254 29.829-10.254 26.743 0 48.5 21.757 48.5 48.5s-21.757 48.5-48.5 48.5-48.5-21.757-48.5-48.5c0-4.623.648-9.194 1.927-13.588 1.157-3.978-1.128-8.14-5.105-9.297-3.978-1.16-8.139 1.128-9.297 5.105-1.675 5.756-2.524 11.737-2.524 17.779 0 35.014 28.486 63.5 63.5 63.5s63.5-28.486 63.5-63.5-28.487-63.499-63.501-63.499zm-79.835-89.782c3.945.866 8.036-1.63 8.933-5.72 6.964-31.766 21.942-61.499 43.314-85.987 18.865-21.615 42.476-38.753 68.88-50.149l-7.505 15.431c-1.812 3.726-.26 8.214 3.465 10.025 3.655 1.778 8.194.306 10.025-3.465l15.744-32.375c1.812-3.726.26-8.214-3.465-10.025l-32.375-15.744c-3.726-1.812-8.214-.259-10.025 3.465-1.812 3.726-.26 8.214 3.465 10.025l16.598 8.071c-29.212 12.272-55.324 31.062-76.108 54.877-23.026 26.383-39.163 58.416-46.666 92.638-.886 4.046 1.674 8.045 5.72 8.933zm438.965-114.168h-15.53c-2.224-7.494-5.24-14.774-8.974-21.651l10.985-10.984c5.653-5.654 5.653-14.854 0-20.508l-25.018-25.018c-5.654-5.652-14.854-5.652-20.508 0l-10.984 10.985c-6.876-3.732-14.157-6.75-21.651-8.974v-15.53c0-7.995-6.505-14.5-14.5-14.5h-35.381c-7.995 0-14.5 6.505-14.5 14.5v15.53c-7.494 2.224-14.774 5.24-21.651 8.974l-10.984-10.984c-2.739-2.739-6.381-4.248-10.254-4.248s-7.515 1.509-10.254 4.247l-25.018 25.018c-5.653 5.654-5.653 14.854 0 20.508l10.985 10.984c-3.732 6.876-6.75 14.157-8.974 21.651h-15.53c-7.995 0-14.5 6.505-14.5 14.5v35.381c0 7.995 6.505 14.5 14.5 14.5h15.53c2.224 7.494 5.24 14.774 8.974 21.651l-10.985 10.984c-5.653 5.654-5.653 14.854 0 20.508l25.018 25.018c2.739 2.738 6.381 4.247 10.254 4.247s7.515-1.509 10.252-4.247l10.986-10.985c6.876 3.732 14.157 6.75 21.651 8.974v15.53c0 7.995 6.505 14.5 14.5 14.5h35.381c7.995 0 14.5-6.505 14.5-14.5v-15.53c7.494-2.224 14.774-5.24 21.651-8.974l10.984 10.985c5.654 5.652 14.854 5.652 20.508 0l25.018-25.018c5.653-5.654 5.653-14.854 0-20.508l-10.985-10.984c3.732-6.876 6.75-14.157 8.974-21.651h15.53c7.995 0 14.5-6.505 14.5-14.5v-35.381c0-7.995-6.505-14.5-14.5-14.5zm-.5 49.381h-15.409c-6.388 0-12.115 4.312-13.929 10.485-1.957 6.662-4.639 13.134-7.97 19.232-3.089 5.651-2.089 12.754 2.431 17.274l10.898 10.897-24.312 24.312-10.897-10.898c-4.52-4.518-11.621-5.519-17.273-2.432-6.1 3.332-12.571 6.014-19.233 7.971-6.174 1.813-10.485 7.541-10.485 13.929v15.409h-34.381v-15.409c0-6.388-4.312-12.115-10.485-13.929-6.662-1.957-13.134-4.639-19.232-7.97-5.652-3.09-12.755-2.089-17.273 2.431l-10.898 10.897-24.312-24.311 10.898-10.897c4.52-4.521 5.52-11.623 2.432-17.273-3.332-6.1-6.014-12.571-7.971-19.233-1.813-6.174-7.541-10.485-13.929-10.485h-15.41v-34.381h15.409c6.388 0 12.115-4.312 13.929-10.485 1.957-6.662 4.639-13.134 7.97-19.232 3.089-5.651 2.089-12.754-2.431-17.274l-10.899-10.899 24.312-24.311 10.897 10.897c4.521 4.518 11.623 5.521 17.273 2.432 6.1-3.332 12.571-6.014 19.233-7.971 6.174-1.813 10.485-7.541 10.485-13.929v-15.408h34.381v15.409c0 6.388 4.312 12.115 10.485 13.929 6.662 1.957 13.134 4.639 19.232 7.97 5.652 3.091 12.755 2.087 17.274-2.431l10.897-10.898 24.312 24.312-10.898 10.897c-4.52 4.521-5.52 11.623-2.432 17.273 3.332 6.1 6.014 12.571 7.971 19.233 1.813 6.174 7.541 10.485 13.929 10.485h15.411zm-43.865 140.07c-4.028-.975-8.079 1.499-9.054 5.524-15.585 64.373-62.209 115.702-124.721 137.306-1.33.459-2.668.897-4.007 1.328l8.475-17.427c1.812-3.726.26-8.214-3.465-10.025-3.727-1.812-8.214-.259-10.025 3.465l-15.744 32.375c-.869 1.789-.993 3.851-.344 5.73.65 1.88 2.021 3.425 3.809 4.295l32.374 15.743c3.653 1.781 8.192.305 10.025-3.465 1.812-3.726.26-8.214-3.465-10.025l-14.721-7.158c.662-.221 1.327-.431 1.986-.658 67.364-23.281 117.607-78.591 134.399-147.954.977-4.026-1.496-8.08-5.522-9.054zm-190.895 45.808h-15.53c-2.224-7.494-5.24-14.774-8.974-21.651l10.985-10.984c5.653-5.654 5.653-14.854 0-20.508l-25.018-25.018c-5.654-5.652-14.854-5.652-20.508 0l-10.984 10.985c-6.876-3.732-14.157-6.75-21.651-8.974v-15.53c0-7.995-6.505-14.5-14.5-14.5h-35.38c-7.995 0-14.5 6.505-14.5 14.5v15.53c-7.494 2.224-14.774 5.24-21.651 8.974l-10.984-10.984c-2.739-2.739-6.381-4.248-10.254-4.248s-7.515 1.509-10.254 4.247l-25.018 25.018c-5.653 5.654-5.653 14.854 0 20.508l10.985 10.984c-3.732 6.876-6.75 14.157-8.974 21.651h-15.53c-7.995 0-14.5 6.505-14.5 14.5v35.381c0 7.995 6.505 14.5 14.5 14.5h15.53c2.224 7.494 5.24 14.774 8.974 21.651l-10.985 10.984c-5.653 5.654-5.653 14.854 0 20.508l25.018 25.018c2.739 2.738 6.381 4.247 10.254 4.247s7.515-1.509 10.252-4.247l10.986-10.985c6.876 3.732 14.157 6.75 21.651 8.974v15.53c0 7.995 6.505 14.5 14.5 14.5h35.381c7.995 0 14.5-6.505 14.5-14.5v-15.53c7.494-2.224 14.774-5.24 21.651-8.974l10.984 10.985c5.654 5.652 14.854 5.652 20.508 0l25.018-25.018c5.653-5.654 5.653-14.854 0-20.508l-10.985-10.984c3.732-6.876 6.75-14.157 8.974-21.651h15.53c7.995 0 14.5-6.505 14.5-14.5v-35.381c-.001-7.995-6.506-14.5-14.501-14.5zm-.5 49.381h-15.409c-6.388 0-12.115 4.312-13.929 10.485-1.957 6.662-4.639 13.134-7.97 19.232-3.089 5.651-2.089 12.754 2.431 17.274l10.898 10.897-24.312 24.312-10.897-10.898c-4.52-4.518-11.621-5.519-17.273-2.432-6.1 3.332-12.571 6.014-19.233 7.971-6.174 1.813-10.485 7.541-10.485 13.929v15.41h-34.381v-15.409c0-6.388-4.312-12.115-10.485-13.929-6.662-1.957-13.134-4.639-19.232-7.97-5.653-3.089-12.754-2.088-17.273 2.431l-10.9 10.898-24.311-24.311 10.898-10.897c4.52-4.521 5.52-11.623 2.432-17.273-3.332-6.1-6.014-12.571-7.971-19.233-1.813-6.174-7.541-10.485-13.929-10.485h-15.409v-34.381h15.409c6.388 0 12.115-4.312 13.929-10.485 1.957-6.662 4.639-13.134 7.97-19.232 3.089-5.651 2.089-12.754-2.431-17.274l-10.898-10.9 24.312-24.311 10.897 10.897c4.521 4.519 11.623 5.521 17.273 2.432 6.1-3.332 12.571-6.014 19.233-7.971 6.174-1.813 10.485-7.541 10.485-13.929v-15.408h34.381v15.409c0 6.388 4.312 12.115 10.485 13.929 6.662 1.957 13.134 4.639 19.232 7.97 5.652 3.091 12.755 2.088 17.274-2.431l10.897-10.898 24.312 24.312-10.898 10.897c-4.52 4.521-5.52 11.623-2.432 17.273 3.332 6.1 6.014 12.571 7.971 19.233 1.813 6.174 7.541 10.485 13.929 10.485h15.409v34.381zm160.275-281.641c-3.798 1.652-5.538 6.071-3.885 9.869 2.654 6.101 4 12.602 4 19.322 0 26.743-21.757 48.5-48.5 48.5s-48.5-21.757-48.5-48.5 21.757-48.5 48.5-48.5c8.641 0 17.12 2.298 24.523 6.646 3.571 2.099 8.167.903 10.265-2.669 2.098-3.571.903-8.167-2.669-10.265-9.703-5.699-20.81-8.712-32.119-8.712-35.014 0-63.5 28.486-63.5 63.5s28.486 63.5 63.5 63.5 63.5-28.486 63.5-63.5c0-8.792-1.765-17.307-5.246-25.307-1.653-3.797-6.069-5.539-9.869-3.884z" data-original="#000000" class="active-path" data-old_color="#000000" fill="#FFFFFF"/></g></g> </svg>
